ModelForces
version=1
nRows=4
nColumns=143
inDegrees=no

This file contains the forces exerted on a model during a simulation.

A force is a generalized force, meaning that it can be either a force (N) or a torque (Nm).

Units are S.I. units (second, meters, Newtons, ...)
Angles are in degrees.

endheader
time	semimem_r	semiten_r	bifemlh_r	bifemsh_r	sar_r	grac_r	rect_fem_r	vas_med_r	vas_int_r	vas_lat_r	med_gas_r	lat_gas_r	femur_lat_meniscii_l.femur_lat_l.force.X	femur_lat_meniscii_l.femur_lat_l.force.Y	femur_lat_meniscii_l.femur_lat_l.force.Z	femur_lat_meniscii_l.femur_lat_l.torque.X	femur_lat_meniscii_l.femur_lat_l.torque.Y	femur_lat_meniscii_l.femur_lat_l.torque.Z	femur_lat_meniscii_l.meniscus_lat_l.force.X	femur_lat_meniscii_l.meniscus_lat_l.force.Y	femur_lat_meniscii_l.meniscus_lat_l.force.Z	femur_lat_meniscii_l.meniscus_lat_l.torque.X	femur_lat_meniscii_l.meniscus_lat_l.torque.Y	femur_lat_meniscii_l.meniscus_lat_l.torque.Z	femur_med_meniscii_l.femur_med_l.force.X	femur_med_meniscii_l.femur_med_l.force.Y	femur_med_meniscii_l.femur_med_l.force.Z	femur_med_meniscii_l.femur_med_l.torque.X	femur_med_meniscii_l.femur_med_l.torque.Y	femur_med_meniscii_l.femur_med_l.torque.Z	femur_med_meniscii_l.meniscus_med_l.force.X	femur_med_meniscii_l.meniscus_med_l.force.Y	femur_med_meniscii_l.meniscus_med_l.force.Z	femur_med_meniscii_l.meniscus_med_l.torque.X	femur_med_meniscii_l.meniscus_med_l.torque.Y	femur_med_meniscii_l.meniscus_med_l.torque.Z	femur_lat_meniscii_r.femur_lat_r.force.X	femur_lat_meniscii_r.femur_lat_r.force.Y	femur_lat_meniscii_r.femur_lat_r.force.Z	femur_lat_meniscii_r.femur_lat_r.torque.X	femur_lat_meniscii_r.femur_lat_r.torque.Y	femur_lat_meniscii_r.femur_lat_r.torque.Z	femur_lat_meniscii_r.meniscus_lat_r.force.X	femur_lat_meniscii_r.meniscus_lat_r.force.Y	femur_lat_meniscii_r.meniscus_lat_r.force.Z	femur_lat_meniscii_r.meniscus_lat_r.torque.X	femur_lat_meniscii_r.meniscus_lat_r.torque.Y	femur_lat_meniscii_r.meniscus_lat_r.torque.Z	femur_med_meniscii_r.femur_med_r.force.X	femur_med_meniscii_r.femur_med_r.force.Y	femur_med_meniscii_r.femur_med_r.force.Z	femur_med_meniscii_r.femur_med_r.torque.X	femur_med_meniscii_r.femur_med_r.torque.Y	femur_med_meniscii_r.femur_med_r.torque.Z	femur_med_meniscii_r.meniscus_med_r.force.X	femur_med_meniscii_r.meniscus_med_r.force.Y	femur_med_meniscii_r.meniscus_med_r.force.Z	femur_med_meniscii_r.meniscus_med_r.torque.X	femur_med_meniscii_r.meniscus_med_r.torque.Y	femur_med_meniscii_r.meniscus_med_r.torque.Z	femur_med_tibia_l.tibia_upper_l.force.X	femur_med_tibia_l.tibia_upper_l.force.Y	femur_med_tibia_l.tibia_upper_l.force.Z	femur_med_tibia_l.tibia_upper_l.torque.X	femur_med_tibia_l.tibia_upper_l.torque.Y	femur_med_tibia_l.tibia_upper_l.torque.Z	femur_med_tibia_l.femur_med_l.force.X	femur_med_tibia_l.femur_med_l.force.Y	femur_med_tibia_l.femur_med_l.force.Z	femur_med_tibia_l.femur_med_l.torque.X	femur_med_tibia_l.femur_med_l.torque.Y	femur_med_tibia_l.femur_med_l.torque.Z	femur_lat_tibia_l.tibia_upper_l.force.X	femur_lat_tibia_l.tibia_upper_l.force.Y	femur_lat_tibia_l.tibia_upper_l.force.Z	femur_lat_tibia_l.tibia_upper_l.torque.X	femur_lat_tibia_l.tibia_upper_l.torque.Y	femur_lat_tibia_l.tibia_upper_l.torque.Z	femur_lat_tibia_l.femur_lat_l.force.X	femur_lat_tibia_l.femur_lat_l.force.Y	femur_lat_tibia_l.femur_lat_l.force.Z	femur_lat_tibia_l.femur_lat_l.torque.X	femur_lat_tibia_l.femur_lat_l.torque.Y	femur_lat_tibia_l.femur_lat_l.torque.Z	femur_med_tibia_r.tibia_upper_r.force.X	femur_med_tibia_r.tibia_upper_r.force.Y	femur_med_tibia_r.tibia_upper_r.force.Z	femur_med_tibia_r.tibia_upper_r.torque.X	femur_med_tibia_r.tibia_upper_r.torque.Y	femur_med_tibia_r.tibia_upper_r.torque.Z	femur_med_tibia_r.femur_med_r.force.X	femur_med_tibia_r.femur_med_r.force.Y	femur_med_tibia_r.femur_med_r.force.Z	femur_med_tibia_r.femur_med_r.torque.X	femur_med_tibia_r.femur_med_r.torque.Y	femur_med_tibia_r.femur_med_r.torque.Z	femur_lat_tibia_r.tibia_upper_r.force.X	femur_lat_tibia_r.tibia_upper_r.force.Y	femur_lat_tibia_r.tibia_upper_r.force.Z	femur_lat_tibia_r.tibia_upper_r.torque.X	femur_lat_tibia_r.tibia_upper_r.torque.Y	femur_lat_tibia_r.tibia_upper_r.torque.Z	femur_lat_tibia_r.femur_lat_r.force.X	femur_lat_tibia_r.femur_lat_r.force.Y	femur_lat_tibia_r.femur_lat_r.force.Z	femur_lat_tibia_r.femur_lat_r.torque.X	femur_lat_tibia_r.femur_lat_r.torque.Y	femur_lat_tibia_r.femur_lat_r.torque.Z	aACL_R	pACL_R	aPCL_R	pPCL_R	aMCL_R	aLCL_R	aPCL_L	pPCL_L	aMCL_L	aLCL_L	ground_prescribedForce_fx	ground_prescribedForce_fy	ground_prescribedForce_fz	ground_prescribedForce_px	ground_prescribedForce_py	ground_prescribedForce_pz	ground_prescribedForce_fx	ground_prescribedForce_fy	ground_prescribedForce_fz	ground_prescribedForce_px	ground_prescribedForce_py	ground_prescribedForce_pz	ground_prescribedForce_fx	ground_prescribedForce_fy	ground_prescribedForce_fz	ground_prescribedForce_px	ground_prescribedForce_py	ground_prescribedForce_pz	ground_prescribedForce_fx	ground_prescribedForce_fy	ground_prescribedForce_fz	ground_prescribedForce_px	ground_prescribedForce_py	ground_prescribedForce_pz
      0.00000000	     28.59115894	     19.96738875	     30.88980427	     34.13218625	      7.55355113	      7.63544076	     56.21092799	     41.72080175	     42.56953699	     53.15955150	     51.32309421	     26.62260915	      2.76307435	     50.99597937	     -9.56042239	      5.21997485	     -0.02578839	      1.48581788	     -2.76307435	    -50.99597937	      9.56042239	     -1.74637766	      0.02558040	     -0.48301696	     -3.31599387	     20.97615968	     -3.40468921	      0.94473225	     -0.02138609	     -1.00501789	      3.31599387	    -20.97615968	      3.40468921	      0.28075727	      0.00368718	     -0.29758878	     24.09645844	     34.88461218	     -6.70096166	      1.85242169	      0.65087477	      9.98163986	    -24.09645844	    -34.88461218	      6.70096166	      0.87973949	     -0.73298946	     -0.58435148	     34.05775898	     29.64917011	      5.63860322	     -1.64593440	     -0.77294951	     14.03606969	    -34.05775898	    -29.64917011	     -5.63860322	     -0.36631911	      0.57798261	     -0.85666177	      0.00000000	      0.00000000	      0.00000000	      0.00000000	      0.00000000	      0.00000000	      0.00000000	      0.00000000	      0.00000000	      0.00000000	      0.00000000	      0.00000000	      0.00000000	      0.00000000	      0.00000000	      0.00000000	      0.00000000	      0.00000000	      0.00000000	      0.00000000	      0.00000000	      0.00000000	      0.00000000	      0.00000000	      0.00000000	      0.00000000	      0.00000000	      0.00000000	      0.00000000	      0.00000000	      0.00000000	      0.00000000	      0.00000000	      0.00000000	      0.00000000	      0.00000000	      0.00000000	      0.00000000	      0.00000000	      0.00000000	      0.00000000	      0.00000000	      0.00000000	      0.00000000	      0.00000000	      0.00000000	      0.00000000	      0.00000000	      0.00000000	      0.00000000	     10.54663584	      0.57456433	     12.72919871	      0.00000000	      0.00000000	      0.00000000	    116.99866359	      0.00000000	    -25.84154700	      9.40555000	      0.00000000	      0.00000000	     -0.05000000	     -0.50000000	    -25.84154700	      9.40555000	      0.00000000	      0.00000000	     -0.05000000	      0.50000000	    -25.84154700	      9.40555000	      0.00000000	      0.00000000	     -0.10000000	     -0.50000000	    -25.84154700	      9.40555000	      0.00000000	      0.00000000	     -0.10000000	      0.50000000
      0.00100000	     27.77207988	     19.36645548	     30.12934424	     31.80791370	      7.05564244	      7.21314079	     54.76611905	     38.59018028	     39.56249746	     49.66353147	     49.97559335	     25.97996280	      2.76307435	     50.99597937	     -9.56042239	      5.21997485	     -0.02578839	      1.48581788	     -2.76307435	    -50.99597937	      9.56042239	     -1.74637766	      0.02558040	     -0.48301696	     -3.31599387	     20.97615968	     -3.40468921	      0.94473225	     -0.02138609	     -1.00501789	      3.31599387	    -20.97615968	      3.40468921	      0.28075727	      0.00368718	     -0.29758878	     28.68448075	     49.10663231	     -9.01907429	      2.42636628	      0.78456660	     11.90070651	    -28.68448075	    -49.10663231	      9.01907429	      1.26010535	     -0.87644475	     -0.67641734	     44.29266631	     41.32655233	      8.96821003	     -2.74251703	     -1.01405218	     18.25025176	    -44.29266631	    -41.32655233	     -8.96821003	     -0.48678516	      0.75296726	     -1.09809505	      0.00000000	      0.00000000	      0.00000000	      0.00000000	      0.00000000	      0.00000000	      0.00000000	      0.00000000	      0.00000000	      0.00000000	      0.00000000	      0.00000000	      0.00000000	      0.00000000	      0.00000000	      0.00000000	      0.00000000	      0.00000000	      0.00000000	      0.00000000	      0.00000000	      0.00000000	      0.00000000	      0.00000000	      0.00000000	      0.00000000	      0.00000000	      0.00000000	      0.00000000	      0.00000000	      0.00000000	      0.00000000	      0.00000000	      0.00000000	      0.00000000	      0.00000000	      0.00000000	      0.00000000	      0.00000000	      0.00000000	      0.00000000	      0.00000000	      0.00000000	      0.00000000	      0.00000000	      0.00000000	      0.00000000	      0.00000000	      0.00000000	      0.00000000	      7.76777884	     -2.22467591	    -32.48197796	      0.00000000	      0.00000000	      0.00000000	    116.99866359	      0.00000000	    -25.84154700	      9.40555000	      0.00000000	      0.00000000	     -0.05000000	     -0.50000000	    -25.84154700	      9.40555000	      0.00000000	      0.00000000	     -0.05000000	      0.50000000	    -25.84154700	      9.40555000	      0.00000000	      0.00000000	     -0.10000000	     -0.50000000	    -25.84154700	      9.40555000	      0.00000000	      0.00000000	     -0.10000000	      0.50000000
      0.00299331	     23.04167960	     16.11659625	     25.85777565	     22.74130965	      5.41464954	      5.48800957	     46.57193514	     23.07174080	     24.51497765	     31.52778321	     42.53953682	     22.45852785	      2.76307435	     50.99597937	     -9.56042239	      5.21997485	     -0.02578839	      1.48581788	     -2.76307435	    -50.99597937	      9.56042239	     -1.74637766	      0.02558040	     -0.48301696	     -3.31599387	     20.97615968	     -3.40468921	      0.94473225	     -0.02138609	     -1.00501789	      3.31599387	    -20.97615968	      3.40468921	      0.28075727	      0.00368718	     -0.29758878	     39.38467108	    137.81348949	    -23.45648073	      5.98916130	      1.13036779	     16.64738917	    -39.38467108	   -137.81348949	     23.45648073	      3.62147401	     -1.19631550	     -0.89808599	     84.67711128	     98.87333641	     29.27643516	     -9.71815385	     -2.04592534	     34.98936766	    -84.67711128	    -98.87333641	    -29.27643516	     -1.00571363	      1.50011043	     -2.12906022	      0.00000000	      0.00000000	      0.00000000	      0.00000000	      0.00000000	      0.00000000	      0.00000000	      0.00000000	      0.00000000	      0.00000000	      0.00000000	      0.00000000	      0.00000000	      0.00000000	      0.00000000	      0.00000000	      0.00000000	      0.00000000	      0.00000000	      0.00000000	      0.00000000	      0.00000000	      0.00000000	      0.00000000	      0.08320553	     -5.13742239	     -0.51444101	     -0.03339475	     -0.00313841	      0.02573026	     -0.08320553	      5.13742239	      0.51444101	     -0.13908593	      0.00092130	     -0.03148623	      0.00000000	      0.00000000	      0.00000000	      0.00000000	      0.00000000	      0.00000000	      0.00000000	      0.00000000	      0.00000000	      0.00000000	      0.00000000	      0.00000000	      0.00000000	      0.00000000	     19.53976538	     34.67505766	    -72.37550165	      0.00000000	      0.00000000	      0.00000000	    116.99866359	      0.00000000	    -25.84154700	      9.40555000	      0.00000000	      0.00000000	     -0.05000000	     -0.50000000	    -25.84154700	      9.40555000	      0.00000000	      0.00000000	     -0.05000000	      0.50000000	    -25.84154700	      9.40555000	      0.00000000	      0.00000000	     -0.10000000	     -0.50000000	    -25.84154700	      9.40555000	      0.00000000	      0.00000000	     -0.10000000	      0.50000000
      0.00498663	     18.45825940	     13.34485304	     21.99879315	     19.91139377	      5.02752453	      4.74167041	     38.98077261	     12.46539307	     14.08800356	     18.01121379	     35.92529157	     19.37904771	      2.76307435	     50.99597937	     -9.56042239	      5.21997485	     -0.02578839	      1.48581788	     -2.76307435	    -50.99597937	      9.56042239	     -1.74637766	      0.02558040	     -0.48301696	     -3.31599387	     20.97615968	     -3.40468921	      0.94473225	     -0.02138609	     -1.00501789	      3.31599387	    -20.97615968	      3.40468921	      0.28075727	      0.00368718	     -0.29758878	     23.31999659	    219.99197926	    -33.06690245	      7.75846825	      0.74549489	     10.52813437	    -23.31999659	   -219.99197926	     33.06690245	      5.85457722	     -0.69144714	     -0.56813751	     69.63101280	    276.96856671	     71.73848407	    -23.39286603	     -2.17975626	     30.98062740	    -69.63101280	   -276.96856671	    -71.73848407	     -2.76138542	      1.52386796	     -3.06245370	      0.00000000	      0.00000000	      0.00000000	      0.00000000	      0.00000000	      0.00000000	      0.00000000	      0.00000000	      0.00000000	      0.00000000	      0.00000000	      0.00000000	      0.00000000	      0.00000000	      0.00000000	      0.00000000	      0.00000000	      0.00000000	      0.00000000	      0.00000000	      0.00000000	      0.00000000	      0.00000000	      0.00000000	      7.90713386	    -62.62124450	     -5.29092412	     -0.55179014	     -0.11617819	      0.53913898	     -7.90713386	     62.62124450	      5.29092412	     -1.18812312	      0.12623873	     -3.25846177	      0.00000000	      0.00000000	      0.00000000	      0.00000000	      0.00000000	      0.00000000	      0.00000000	      0.00000000	      0.00000000	      0.00000000	      0.00000000	      0.00000000	      0.00000000	      0.00000000	     45.95145431	     97.57456701	    -30.54325631	      0.00000000	      0.00000000	      0.00000000	    116.99866359	      0.00000000	    -25.84154700	      9.40555000	      0.00000000	      0.00000000	     -0.05000000	     -0.50000000	    -25.84154700	      9.40555000	      0.00000000	      0.00000000	     -0.05000000	      0.50000000	    -25.84154700	      9.40555000	      0.00000000	      0.00000000	     -0.10000000	     -0.50000000	    -25.84154700	      9.40555000	      0.00000000	      0.00000000	     -0.10000000	      0.50000000
